<svg width="47" height="37" viewBox="0 0 47 37" fill="none" xmlns="http://www.w3.org/2000/svg">
<path d="M2.5 15.9102C1.11929 15.9102 0 17.0294 0 18.4102C0 19.7909 1.11929 20.9102 2.5 20.9102V15.9102ZM46.2678 20.1779C47.2441 19.2016 47.2441 17.6187 46.2678 16.6424L30.3579 0.732487C29.3816 -0.243824 27.7986 -0.243824 26.8223 0.732487C25.846 1.7088 25.846 3.29171 26.8223 4.26802L40.9645 18.4102L26.8223 32.5523C25.846 33.5286 25.846 35.1115 26.8223 36.0878C27.7986 37.0641 29.3816 37.0641 30.3579 36.0878L46.2678 20.1779ZM2.5 18.4102V20.9102H44.5V18.4102V15.9102H2.5V18.4102Z" fill="#FF85E9"/>
</svg>
